<?xml version="1.0" encoding="utf-8"?>
<!-- Generator: Adobe Illustrator 20.1.0, SVG Export Plug-In . SVG Version: 6.00 Build 0)  -->
<svg version="1.1" id="Layer_1" xmlns="http://www.w3.org/2000/svg" xmlns:xlink="http://www.w3.org/1999/xlink" x="0px" y="0px"
	 viewBox="0 0 96 40" style="enable-background:new 0 0 96 40;" xml:space="preserve">
<style type="text/css">
	.st0{fill:none;}
</style>
<g>
	<path d="M5.4,24v0.2c0,2.4,1.7,4.3,4.1,4.3c2.5,0,4-1.7,4.6-3.2l4,2.1c-2,3.4-5.2,5.2-9,5.2C3.6,32.5,0,29,0,23.2
		c0-4.5,2.2-9.9,9.3-9.9c6.8,0,9,5.4,9,10.4V24H5.4z M12.8,20.6c-0.1-2-1.4-3.6-3.6-3.6c-2.5,0-3.6,2.1-3.8,3.6H12.8z"/>
	<path d="M28.7,31.9h-5.6l-5.9-18h5.6l3.2,12.2l3-12.2h5.5L28.7,31.9z"/>
	<path d="M43.6,32.4c-4.7,0-9.7-2.6-9.7-9.7c0-4.6,2.8-9.5,9.5-9.5c7.6,0,9.9,5.2,9.9,9.6C53.3,28.7,49.7,32.4,43.6,32.4z
		 M43.4,17.5c-2,0-4.1,1.5-4.1,5.3c0,3,1.3,5.4,4.4,5.4c2.9,0,4.2-2.5,4.2-5.1C47.9,19.2,46.3,17.5,43.4,17.5z"/>
	<path d="M55.1,31.9V7.5h5.3v24.4H55.1z"/>
	<path d="M72.4,31.9h-5.6l-5.9-18h5.6l3.2,12.2l3-12.2h5.5L72.4,31.9z"/>
	<path d="M83.1,24v0.2c0,2.4,1.7,4.3,4.1,4.3c2.5,0,4-1.7,4.6-3.2l4,2.1c-2,3.4-5.2,5.2-9,5.2c-5.5,0-9.1-3.5-9.1-9.3
		c0-4.5,2.2-9.9,9.3-9.9c6.8,0,9,5.4,9,10.4V24H83.1z M90.5,20.6c-0.1-2-1.4-3.6-3.6-3.6c-2.5,0-3.6,2.1-3.8,3.6H90.5z"/>
</g>
<rect class="st0" width="96" height="40"/>
</svg>
